# xmcd CD database file
#
# Track frame offsets:
#	151
#	16762
#	37812
#	57543
#	74712
#	91287
#	110586
#	123948
#	139751
#	160816
#	175000
#	196962
#	210779
#	228491
#	246993
#	267096
#
# Disc length: 3816 seconds
#
# Revision: 1
# Processed by: cddbd v1.4PL0 Copyright (c) Steve Scherf et al.
# Submitted via: CDex 1.50Beta7
#
DISCID=d70ee610
DTITLE=The Big Bam - Blues-A-Matic
DYEAR=1900
DGENRE=Blues
TTITLE0=Two Bones and A Pick
TTITLE1=I'm On A Roll
TTITLE2=Jumpin' The Blues
TTITLE3=Somebody Th'owd Bad Luck On Me
TTITLE4=That's Neat, That's Nice
TTITLE5=Hide and Seek
TTITLE6=Knock Me A Kiss
TTITLE7=Going Back To New Orleans
TTITLE8=Lex Meets Big
TTITLE9=Roll'em Pete
TTITLE10=Fools' Paradise
TTITLE11=Monkey Hips and Rice
TTITLE12=Where You At
TTITLE13=Route 66
TTITLE14=Please Send Me Someone To Love
TTITLE15=I Can't Stop It
EXTD=
EXTT0=
EXTT1=
EXTT2=
EXTT3=
EXTT4=
EXTT5=
EXTT6=
EXTT7=
EXTT8=
EXTT9=
EXTT10=
EXTT11=
EXTT12=
EXTT13=
EXTT14=
EXTT15=
PLAYORDER=
